<svg width="809" height="171" viewBox="0 0 809 171" fill="none" xmlns="http://www.w3.org/2000/svg">
<path d="M126.973 102.493C126.973 124.437 109.829 140.761 87.595 153.606C64.5578 166.718 47.1459 170.465 24.1087 170.465C20.3585 170.465 13.9295 169.394 11.7865 168.592C8.03624 166.451 2.41087 161.901 0 156.282C2.143 145.577 6.69687 132.732 19.8227 99.5493C28.1268 78.9437 37.7703 59.9437 44.4672 47.3662C37.5024 44.4225 29.4662 41.2113 19.8227 38.8028C19.8227 35.0563 28.9305 27.2958 35.0916 26.7606C47.6817 30.507 71.5225 40.676 85.7199 48.9718C107.686 62.0845 126.973 81.8873 126.973 102.493ZM105.81 104.366C105.81 85.6338 90.0059 67.9718 59.4682 54.0563C50.6283 68.2394 41.7884 86.169 35.8952 101.69C26.2517 127.38 21.43 144.507 21.1621 151.732C23.3051 153.873 25.716 155.479 27.5911 156.282C30.5377 157.085 34.8237 157.887 39.6454 157.887C49.8247 157.887 63.4863 154.944 79.5588 145.31C96.4349 135.141 105.81 119.085 105.81 104.366Z" fill="#DF540A"/>
<path d="M174.847 77.8732C177.793 77.0704 182.883 75.7324 186.901 75.7324C198.688 75.7324 208.867 78.4084 209.403 88.0423C209.938 103.296 187.169 117.211 158.239 117.211C153.685 127.648 151.542 136.479 151.542 144.507C151.542 150.662 152.077 156.549 157.971 156.549C168.686 156.549 184.758 144.507 194.402 136.211C196.545 138.887 196.812 141.563 196.812 145.845C185.294 155.746 160.382 171 147.256 171C137.076 171 131.719 165.648 131.719 155.479C131.719 131.394 152.345 96.0704 174.847 77.8732ZM179.936 84.831C174.579 89.9155 167.614 98.2113 162.257 108.113C176.722 108.113 192.526 103.296 192.526 92.3239C192.526 86.9718 187.705 84.831 179.936 84.831Z" fill="#DF540A"/>
<path d="M336.172 151.732C348.762 151.732 357.602 149.592 364.835 144.239C366.174 146.915 366.978 150.394 366.978 153.07C365.638 154.944 362.424 158.155 358.941 160.296C350.102 165.915 339.387 168.056 325.725 168.056C306.706 168.056 300.009 165.915 285.008 165.915C272.418 165.915 265.453 166.986 256.078 169.127C253.667 168.592 251.792 167.521 249.649 166.451C248.309 164.31 247.506 161.634 246.97 158.69C301.616 115.606 335.904 82.1549 354.12 53.2535C354.923 52.1831 353.316 51.6479 352.245 51.9155C341.53 55.1268 319.564 56.7324 305.367 56.7324C301.081 61.2817 299.205 68.7746 297.33 74.3944C293.58 76.5352 289.026 78.1408 283.669 78.676C281.526 77.6056 278.311 75.4648 276.972 72.7887C282.061 60.2113 290.366 48.7042 299.741 42.8169C307.51 43.0845 313.403 43.0845 323.314 43.0845C348.226 43.0845 362.156 39.8732 369.924 36.1268C376.889 38.2676 380.104 45.493 379.568 52.1831C342.065 96.8732 315.01 120.155 280.186 148.789C279.115 149.592 280.186 152 281.526 151.732C285.812 151.197 296.527 150.662 303.491 150.662C316.885 150.662 326.797 151.732 336.172 151.732Z" fill="#DF540A"/>
<path d="M417.346 77.8732C420.293 77.0704 425.383 75.7324 429.401 75.7324C441.187 75.7324 451.367 78.4084 451.902 88.0423C452.438 103.296 429.669 117.211 400.738 117.211C396.184 127.648 394.041 136.479 394.041 144.507C394.041 150.662 394.577 156.549 400.47 156.549C411.185 156.549 427.258 144.507 436.901 136.211C439.044 138.887 439.312 141.563 439.312 145.845C427.794 155.746 402.881 171 389.755 171C379.576 171 374.219 165.648 374.219 155.479C374.219 131.394 394.845 96.0704 417.346 77.8732ZM422.436 84.831C417.079 89.9155 410.114 98.2113 404.756 108.113C419.222 108.113 435.026 103.296 435.026 92.3239C435.026 86.9718 430.204 84.831 422.436 84.831Z" fill="#DF540A"/>
<path d="M491.901 77.8732C494.848 77.0704 499.938 75.7324 503.956 75.7324C515.742 75.7324 525.922 78.4084 526.457 88.0423C526.993 103.296 504.224 117.211 475.293 117.211C470.739 127.648 468.596 136.479 468.596 144.507C468.596 150.662 469.132 156.549 475.025 156.549C485.74 156.549 501.813 144.507 511.456 136.211C513.599 138.887 513.867 141.563 513.867 145.845C502.349 155.746 477.436 171 464.31 171C454.131 171 448.774 165.648 448.774 155.479C448.774 131.394 469.4 96.0704 491.901 77.8732ZM496.991 84.831C491.634 89.9155 484.669 98.2113 479.311 108.113C493.777 108.113 509.581 103.296 509.581 92.3239C509.581 86.9718 504.759 84.831 496.991 84.831Z" fill="#DF540A"/>
<path d="M519.578 165.38C526.543 149.859 542.348 108.113 553.063 77.0704C564.581 43.3521 572.885 18.1972 572.617 8.29576C575.832 5.08451 582.529 0.267602 585.208 0C589.226 0 592.708 2.40844 595.387 3.47886C588.154 23.0141 583.065 35.8591 573.153 63.1549C569.135 74.1268 557.081 106.239 553.598 114.803C553.331 116.408 555.206 117.211 555.741 116.408C575.564 98.2113 601.548 77.338 613.602 77.338C616.817 77.338 618.96 80.5493 618.96 83.7606C618.96 101.958 600.744 128.718 601.548 145.31C601.548 148.254 603.959 151.732 606.102 152.803C605.566 154.676 604.495 158.69 603.155 160.831C599.137 163.775 590.833 166.718 585.475 166.986C583.6 166.986 581.457 164.042 581.457 159.493C581.457 139.423 598.333 114.535 598.333 103.028C598.333 101.155 597.53 98.7465 595.923 98.7465C587.351 98.7465 562.706 120.423 548.777 143.169C543.687 151.732 542.08 155.479 537.794 164.042C531.633 167.254 528.15 167.521 524.132 168.324C523.061 168.324 520.918 166.183 519.578 165.38Z" fill="#DF540A"/>
<path d="M650.824 90.1831C655.378 87.507 658.861 86.7042 662.879 85.6338C664.486 86.9718 666.361 88.8451 667.433 90.7183C653.503 114.803 648.413 129.789 648.413 140.225C648.413 142.634 648.949 145.31 650.824 145.31C656.718 145.31 677.612 126.845 701.72 89.1127C706.274 85.9014 712.971 83.2253 716.186 83.2253C718.061 84.0282 721.275 86.7042 722.079 88.3099C711.096 108.915 703.328 135.408 703.596 143.704C703.596 146.648 704.399 148.521 706.006 148.521C710.025 148.521 716.186 145.042 724.222 138.887C725.561 141.296 726.097 143.437 726.097 146.648C717.793 154.676 700.113 166.183 692.077 166.183C688.862 166.183 685.648 163.507 685.648 156.014C685.648 146.915 689.13 133.535 693.416 121.761C693.952 120.155 691.541 120.423 691.005 120.69C664.486 151.732 645.467 165.915 636.091 165.915C631.537 165.915 628.323 162.437 628.323 155.746C628.323 139.69 640.377 110.521 650.824 90.1831Z" fill="#DF540A"/>
<path d="M779.266 36.9296C783.016 33.7183 789.445 30.507 795.071 29.169C797.749 30.7746 800.696 33.4507 801.5 35.5915C794.267 47.3662 784.623 67.7042 778.194 81.8873C785.427 81.8873 799.357 81.6197 809 80.8169C809 82.4225 806.589 86.9718 804.714 88.8451C795.071 91.2535 784.088 92.8591 772.837 93.9296C760.247 124.437 755.693 138.887 755.693 146.648C755.693 150.93 756.497 152.535 758.372 152.535C763.461 152.268 773.641 146.648 786.499 136.746C788.106 139.423 788.909 142.099 788.909 145.845C772.033 157.887 752.479 170.197 743.906 170.197C739.888 170.197 736.674 165.648 736.674 158.69C736.674 148.521 743.639 125.239 756.765 95.2676C751.139 95.2676 742.835 95.5352 738.013 95.5352C738.013 93.1268 740.96 88.3099 742.031 87.507C747.925 85.9014 754.354 85.0986 761.854 83.493C768.819 68.2394 780.07 40.9437 779.266 36.9296Z" fill="#DF540A"/>
</svg>
